<?xml version="1.0" standalone="no"?>
<!DOCTYPE svg PUBLIC "-//W3C//DTD SVG 20010904//EN"
 "http://www.w3.org/TR/2001/REC-SVG-20010904/DTD/svg10.dtd">
<svg version="1.0" xmlns="http://www.w3.org/2000/svg"
 width="512.000000pt" height="512.000000pt" viewBox="0 0 512.000000 512.000000"
 preserveAspectRatio="xMidYMid meet">

<g transform="translate(0.000000,512.000000) scale(0.100000,-0.100000)"
fill="#000000" stroke="none">
<path d="M2360 5110 c-407 -51 -772 -221 -1059 -495 -163 -156 -283 -319 -381
-520 -406 -824 -133 -1822 635 -2328 468 -308 1044 -385 1574 -211 886 291
1406 1189 1220 2107 -97 480 -402 919 -821 1179 -192 119 -429 211 -648 249
-132 23 -403 33 -520 19z m441 -550 c315 -32 555 -98 814 -226 237 -117 407
-249 461 -361 l29 -58 0 -625 0 -625 -28 -57 c-35 -70 -122 -154 -254 -241
-709 -472 -1813 -473 -2523 -2 -133 88 -223 173 -257 243 l-28 57 -3 609 c-3
676 -5 657 63 752 60 84 244 218 426 309 229 116 546 201 844 228 91 8 360 6
456 -3z"/>
<path d="M2343 4380 c-416 -41 -785 -179 -1050 -393 -109 -88 -103 -45 -103
-695 0 -450 3 -569 14 -595 18 -43 74 -97 176 -166 357 -243 826 -360 1326
-330 401 23 747 134 1034 330 102 70 158 123 176 166 11 26 14 145 14 595 0
651 6 610 -103 696 -244 194 -560 322 -927 377 -128 19 -432 27 -557 15z
m-320 -799 c17 -11 125 -114 240 -228 229 -232 234 -239 181 -302 -21 -25 -33
-31 -67 -31 -40 0 -46 5 -249 207 l-208 207 -208 -207 c-194 -193 -210 -207
-244 -207 -55 0 -93 36 -93 90 0 41 4 45 220 260 160 159 230 221 255 229 49
15 134 6 173 -18z m1280 0 c17 -11 125 -114 240 -228 229 -232 234 -239 181
-302 -21 -25 -33 -31 -67 -31 -40 0 -46 5 -249 207 l-208 207 -208 -207 c-194
-193 -210 -207 -244 -207 -55 0 -93 36 -93 90 0 41 4 45 220 260 160 159 230
221 255 229 49 15 134 6 173 -18z"/>
<path d="M644 4010 c-97 -21 -198 -104 -242 -198 l-27 -57 0 -465 c0 -457 0
-466 22 -512 31 -67 105 -143 176 -178 63 -31 113 -40 104 -17 -89 233 -134
512 -124 782 8 210 37 375 103 569 14 43 24 79 22 80 -1 2 -17 0 -34 -4z"/>
<path d="M4440 4011 c0 -3 12 -40 26 -81 133 -391 138 -845 12 -1240 -17 -52
-33 -101 -35 -107 -9 -23 41 -14 104 17 71 35 145 111 176 178 22 46 22 55 22
512 l0 465 -28 57 c-34 70 -100 138 -162 168 -50 24 -115 42 -115 31z"/>
<path d="M1568 1490 c-56 -46 -157 -186 -199 -275 -63 -133 -83 -228 -84 -385
0 -143 11 -203 59 -322 41 -102 88 -170 181 -263 119 -119 218 -176 386 -222
58 -16 121 -18 649 -18 540 0 590 1 655 19 297 79 523 305 601 601 26 99 26
302 0 405 -43 170 -124 315 -239 428 l-64 63 -94 -46 c-52 -25 -93 -51 -91
-57 1 -6 14 -25 27 -42 34 -44 81 -150 100 -221 19 -76 19 -224 0 -300 -49
-188 -173 -342 -340 -421 -129 -61 -151 -64 -552 -64 -227 0 -382 4 -415 11
-125 26 -272 117 -356 219 -53 64 -115 192 -131 268 -15 74 -13 215 4 290 17
71 71 184 111 231 14 17 24 34 22 37 -5 4 -187 94 -191 94 -2 0 -19 -14 -39
-30z"/>
<path d="M1947 1310 c-229 -254 -105 -657 228 -746 61 -17 695 -19 764 -3 131
30 240 118 304 247 42 85 42 86 42 197 0 111 0 112 -42 196 -23 46 -59 101
-80 122 l-39 37 -80 -19 c-211 -53 -465 -72 -666 -52 -102 11 -299 46 -364 66
-16 5 -31 -4 -67 -45z"/>
<path d="M997 969 c-141 -141 -238 -278 -308 -436 -36 -81 -44 -109 -44 -158
0 -74 28 -125 88 -159 104 -60 158 -46 309 81 62 52 119 101 126 108 12 10 10
24 -12 83 -55 154 -72 359 -41 518 8 43 13 80 10 82 -3 3 -61 -51 -128 -119z"/>
<path d="M3993 1074 c46 -149 32 -416 -29 -586 -22 -59 -24 -73 -12 -83 79
-72 220 -186 245 -199 45 -22 127 -21 179 4 24 12 54 38 70 62 24 34 29 51 29
102 0 128 -150 390 -329 575 -56 56 -114 112 -130 124 -27 19 -28 19 -23 1z"/>
</g>
</svg>
